<svg width="96" height="96" viewBox="0 0 96 96" fill="none" xmlns="http://www.w3.org/2000/svg">
<path d="M33.675 53.6966C33.1448 54.4205 32.5121 55.1743 31.7745 55.9498C29.1717 58.6865 25.9795 60.9381 23.9193 62.1154L23.5727 62.3134C22.188 63.1047 21.3334 64.5773 21.3334 66.1722V76.8889C21.3334 79.3435 23.3232 81.3333 25.7778 81.3333H69.1111C71.5657 81.3333 73.5556 79.3435 73.5556 76.8889V66.1722C73.5556 64.5773 72.701 63.1047 71.3162 62.3134L70.9697 62.1154C68.9094 60.9381 65.7172 58.6865 63.1144 55.9498C62.3769 55.1743 61.7442 54.4205 61.2139 53.6966C63.1645 53.2268 64.6138 51.4705 64.6138 49.3757V42.1409C64.6138 40.6968 63.9122 39.3428 62.7324 38.51L60.8447 37.1775C61.9339 35.0613 62.5503 32.6597 62.5503 30.1164C62.5503 21.5838 55.6332 14.6667 47.1006 14.6667C38.5679 14.6667 31.6508 21.5838 31.6508 30.1164C31.6508 32.8028 32.3383 35.3303 33.5439 37.5307L32.1566 38.51C30.9768 39.3428 30.2752 40.6968 30.2752 42.1409V49.3757C30.2752 51.4705 31.7244 53.2268 33.675 53.6966Z" fill="#FFEEE2"/>
<path d="M58.1059 30.1164C58.1059 33.3083 56.7471 36.1827 54.5763 38.1929L60.1694 42.141V49.3757H54.694C54.958 52.7292 57.1097 56.0853 59.894 59.0128C62.8487 62.1195 66.4037 64.6252 68.7646 65.9742L69.1111 66.1723V76.8889H25.7778V66.1723L26.1244 65.9742C28.4853 64.6252 32.0402 62.1195 34.995 59.0128C37.7793 56.0853 39.9309 52.7292 40.195 49.3757H34.7196V42.141L39.9286 38.4641C37.5816 36.4458 36.0953 33.4547 36.0953 30.1164C36.0953 24.0384 41.0225 19.1111 47.1006 19.1111C53.1786 19.1111 58.1059 24.0384 58.1059 30.1164Z" fill="#3B7CF6"/>
</svg>
