<svg width="96" height="96" viewBox="0 0 96 96" fill="none" xmlns="http://www.w3.org/2000/svg">
<path d="M40.9887 8.56329C42.4517 8.39879 43.9012 8.9694 44.8594 10.087L53.9272 20.6631C64.3404 23.2364 70.3739 31.0776 73.7109 40.8663C77.1494 50.9527 78 63.7578 78 76.8889C78 79.3435 76.0102 81.3333 73.5556 81.3333H32.1166C29.7571 81.3333 27.8088 79.4895 27.6789 77.1336C27.5629 75.0312 28.0466 71.3832 29.5206 67.6571L29.5477 67.5889C25.3619 69.8357 20.7165 69.2976 17.2679 66.8423C13.077 63.8584 10.7467 58.0171 13.4091 52.2487C15.3289 48.0889 17.3981 45.8862 18.9635 44.2203C20.4256 42.6641 21.035 41.9797 21.466 40.2554C24.0796 29.801 29.4566 23.7785 35.2309 21.0301C35.1474 19.8391 35.2154 18.6916 35.3615 17.6499C35.7251 15.0568 36.6303 12.6604 37.5531 10.9086C38.2392 9.60607 39.5258 8.7278 40.9887 8.56329Z" fill="#FFEEE2"/>
<path fill-rule="evenodd" clip-rule="evenodd" d="M51.523 24.6872L41.4854 12.9799C40.0324 15.7383 38.6238 20.6068 40.649 24.1213C39.666 24.2088 38.7267 24.3751 38 24.6667C33.3643 26.527 28.2778 31.3333 25.7778 41.3333C25.0539 44.229 23.751 45.6156 22.2025 47.2636C20.7418 48.8182 19.0625 50.6054 17.4445 54.1111C14.1112 61.3334 23.1071 68.5556 29.6667 61.9959C33.3546 58.308 36.5782 56.7856 39.2847 55.5073C43.1801 53.6676 46.0041 52.3339 47.5993 45.7778C48.3583 48.8359 48.0547 56.053 40.7687 60.4567C33.4828 64.8604 31.9648 74.1366 32.1166 76.8889H73.5556C73.5556 50.7591 70.0961 28.1831 51.523 24.6872Z" fill="#271F19"/>
<circle cx="39.1112" cy="38" r="3.33333" fill="#FFEEE2"/>
</svg>
