<svg width="96" height="96" viewBox="0 0 96 96" fill="none" xmlns="http://www.w3.org/2000/svg">
<path d="M28 19.1111C28 20.2082 28.1764 21.2637 28.5026 22.2509L26.3087 23.2801C24.49 21.3948 21.9375 20.2222 19.1111 20.2222C13.5882 20.2222 9.11108 24.6994 9.11108 30.2222C9.11108 35.1453 12.6686 39.2375 17.3532 40.0682L22.6222 58.1333C22.7322 58.5104 22.8917 58.8713 23.0965 59.2065L26.1333 64.1758L26.1146 64.1791C23.9917 64.5546 22.4444 66.3996 22.4444 68.5555V76.8889C22.4444 79.3435 24.4343 81.3333 26.8889 81.3333L69.1966 81.3333C70.3753 81.3333 71.5058 80.8651 72.3393 80.0316C73.1728 79.1981 73.641 78.0676 73.641 76.8889V68.5555C73.641 66.3971 72.0903 64.5508 69.9643 64.1779L69.8749 64.1622L72.9035 59.2065C73.1083 58.8713 73.2678 58.5104 73.3778 58.1333L78.6468 40.0682C83.3313 39.2375 86.8889 35.1453 86.8889 30.2222C86.8889 24.6994 82.4117 20.2222 76.8889 20.2222C74.0589 20.2222 71.5035 21.3978 69.6844 23.2872L67.4944 22.2599C67.8224 21.2701 68 20.2115 68 19.1111C68 13.5883 63.5228 9.11112 58 9.11112C52.4771 9.11112 48 13.5883 48 19.1111C48 13.5883 43.5228 9.11112 38 9.11112C32.4771 9.11112 28 13.5883 28 19.1111Z" fill="#FFEEE2"/>
<path d="M39.9943 24.298C42.0774 23.4966 43.5556 21.4765 43.5556 19.1111C43.5556 16.0429 41.0683 13.5556 38.0001 13.5556C34.9319 13.5556 32.4445 16.0429 32.4445 19.1111C32.4445 21.9465 34.5686 24.2858 37.3124 24.6245L34.8349 44.6667L22.8914 34.2934C23.9835 33.2789 24.6668 31.8304 24.6668 30.2222C24.6668 27.154 22.1795 24.6667 19.1112 24.6667C16.043 24.6667 13.5557 27.154 13.5557 30.2222C13.5557 33.2905 16.043 35.7778 19.1112 35.7778C19.6513 35.7778 20.1735 35.7007 20.6672 35.557L26.889 56.8889L33.323 67.4173L26.889 68.5556V76.8889L69.1967 76.8889V68.5556L62.68 67.4127L69.1112 56.8889L75.333 35.557C75.8267 35.7007 76.3488 35.7778 76.889 35.7778C79.9572 35.7778 82.4445 33.2905 82.4445 30.2222C82.4445 27.154 79.9572 24.6667 76.889 24.6667C73.8207 24.6667 71.3334 27.154 71.3334 30.2222C71.3334 31.8304 72.0167 33.2789 73.1087 34.2934L61.1653 44.6667L58.6878 24.6245C61.4315 24.2858 63.5556 21.9465 63.5556 19.1111C63.5556 16.0429 61.0683 13.5556 58.0001 13.5556C54.9318 13.5556 52.4445 16.0429 52.4445 19.1111C52.4445 21.4765 53.9228 23.4966 56.0059 24.298L48.0001 42.4445L39.9943 24.298Z" fill="#271F19"/>
</svg>
