<svg width="96" height="96" viewBox="0 0 96 96" fill="none" xmlns="http://www.w3.org/2000/svg">
<g clip-path="url(#clip0_6_75)">
<path d="M-35 47L61 -49" stroke="#271F19" stroke-width="2" stroke-linecap="square"/>
<path d="M-30 54L66 -42" stroke="#271F19" stroke-width="2" stroke-linecap="square"/>
<path d="M-25 61L71 -35" stroke="#271F19" stroke-width="2" stroke-linecap="square"/>
<path d="M-20 68L76 -28" stroke="#271F19" stroke-width="2" stroke-linecap="square"/>
<path d="M-15 75L81 -21" stroke="#271F19" stroke-width="2" stroke-linecap="square"/>
<path d="M-10 82L86 -14" stroke="#271F19" stroke-width="2" stroke-linecap="square"/>
<path d="M-5 89L91 -7" stroke="#271F19" stroke-width="2" stroke-linecap="square"/>
<path d="M0 96L96 0" stroke="#271F19" stroke-width="2" stroke-linecap="square"/>
<path d="M5 103L101 7" stroke="#271F19" stroke-width="2" stroke-linecap="square"/>
<path d="M10 110L106 14" stroke="#271F19" stroke-width="2" stroke-linecap="square"/>
<path d="M15 117L111 21" stroke="#271F19" stroke-width="2" stroke-linecap="square"/>
<path d="M20 124L116 28" stroke="#271F19" stroke-width="2" stroke-linecap="square"/>
<path d="M25 131L121 35" stroke="#271F19" stroke-width="2" stroke-linecap="square"/>
<path d="M30 138L126 42" stroke="#271F19" stroke-width="2" stroke-linecap="square"/>
<path d="M35 145L131 49" stroke="#271F19" stroke-width="2" stroke-linecap="square"/>
</g>
<defs>
<clipPath id="clip0_6_75">
<rect width="96" height="96" fill="white"/>
</clipPath>
</defs>
</svg>
