<svg width="96" height="96" viewBox="0 0 96 96" fill="none" xmlns="http://www.w3.org/2000/svg">
<path d="M37.2378 26.7598C36.7912 25.533 36.547 24.2087 36.547 22.8291C36.547 16.4801 41.6938 11.3333 48.0427 11.3333C54.3917 11.3333 59.5385 16.4801 59.5385 22.8291C59.5385 24.6888 59.094 26.4517 58.3061 28.0105C59.4399 28.089 60.5416 28.5998 61.3448 29.5178C65.7088 34.5052 69.5278 41.6164 69.5278 49.859C69.5278 55.7518 67.4991 60.1184 64.7577 63.2648L69.9644 64.1779C72.0903 64.5508 73.641 66.3972 73.641 68.5556V76.8889C73.641 78.0676 73.1728 79.1981 72.3393 80.0316C71.5058 80.8651 70.3753 81.3333 69.1966 81.3333L26.8889 81.3333C24.4343 81.3333 22.4445 79.3435 22.4445 76.8889V68.5556C22.4445 66.3996 23.9917 64.5546 26.1147 64.1791L30.8114 63.3482C28.0327 60.196 25.9701 55.8048 25.9701 49.859C25.9701 43.4282 28.4622 37.8277 31.3851 33.5356C33.2224 30.8378 35.3023 28.5475 37.2378 26.7598Z" fill="#FFEEE2"/>
<path d="M50.2222 49.2714H45.7778C45.7778 41.1105 48.2531 32.9632 53.729 26.9996C54.5871 25.8316 55.094 24.3895 55.094 22.8291C55.094 18.9347 51.9371 15.7778 48.0428 15.7778C44.1484 15.7778 40.9915 18.9347 40.9915 22.8291C40.9915 24.7504 41.76 26.4923 43.0063 27.7641C38.6016 30.9042 30.4146 39.321 30.4146 49.859C30.4146 60.4937 38.7525 64.7991 43.1265 65.683L26.8889 68.5556V76.8889L69.1966 76.8889V68.5556L52.5739 65.6402C56.9975 64.6665 65.0833 60.3317 65.0833 49.859C65.0833 43.0017 61.8889 36.8889 58 32.4444C53.729 35.7778 50.2222 43.5556 50.2222 49.2714Z" fill="#3B7CF6"/>
</svg>
