<svg width="96" height="96" viewBox="0 0 96 96" fill="none" xmlns="http://www.w3.org/2000/svg">
<path fill-rule="evenodd" clip-rule="evenodd" d="M41.3355 12.3056C41.4105 9.90624 43.3772 8 45.7778 8H52.4444C54.845 8 56.8117 9.90624 56.8867 12.3056L56.9258 13.5556H59.1111C61.5657 13.5556 63.5556 15.5454 63.5556 18V20.6956C68.4002 19.5993 73.6293 20.3316 78.0675 24.0301C87.2877 31.7136 86.4393 47.8201 75.4969 56.6299C72.8562 58.7559 70.7817 60.5184 69.3531 62.3344C69.0272 62.7488 68.748 63.1497 68.513 63.542L73.0173 64.1512C75.2216 64.4494 76.8661 66.3312 76.8661 68.5556V76.8889C76.8661 79.3435 74.8762 81.3334 72.4216 81.3334H25.8006C23.346 81.3334 21.3562 79.3435 21.3562 76.8889V68.5556C21.3562 66.3312 23.0006 64.4494 25.2049 64.1512L29.7092 63.542C29.4742 63.1496 29.195 62.7488 28.8691 62.3344C27.4405 60.5184 25.366 58.7559 22.7254 56.6299C11.7829 47.8201 10.9345 31.7136 20.1547 24.0301C24.593 20.3316 29.822 19.5993 34.6667 20.6956V18C34.6667 15.5454 36.6565 13.5556 39.1111 13.5556H41.2964L41.3355 12.3056Z" fill="#FFEEE2"/>
<path fill-rule="evenodd" clip-rule="evenodd" d="M45.7778 12.4444H52.4445L52.6181 18H59.1112V24.6667H52.8264L53.1317 32.2144C53.2536 32.0709 53.379 31.9302 53.5083 31.7927C59.5785 25.3412 68.5786 21.908 75.2223 27.4444C81.8889 33 81.8889 45.7778 72.7097 53.1679C67.51 57.3542 62.8526 61.3899 63.0821 67.2924L72.4217 68.5555V76.8889H25.8007V68.5555L35.1402 67.2924C35.3697 61.3899 30.7123 57.3542 25.5126 53.1679C16.3334 45.7778 16.3334 33 23 27.4444C29.6438 21.908 38.6438 25.3412 44.714 31.7927C44.8433 31.9302 44.9688 32.0709 45.0906 32.2144L45.3959 24.6667H39.1112V18H45.6042L45.7778 12.4444ZM39.4978 37.9701C43.5719 44.6435 44.1112 52.4444 44.1112 55.8369C42.0691 55.8406 34.371 52.4539 30.2952 46.894C27.3609 42.8913 26.5958 36.9527 29.1112 34.6472C31.6265 32.3417 36.9515 33.7993 39.4978 37.9701ZM58.7245 37.9701C54.6504 44.6435 54.1112 52.4444 54.1112 55.8369C56.1532 55.8406 63.8513 52.4539 67.9271 46.894C70.8614 42.8913 71.6265 36.9527 69.1112 34.6472C66.5958 32.3417 61.2708 33.7993 58.7245 37.9701Z" fill="#3B7CF6"/>
</svg>
